<svg xmlns="http://www.w3.org/2000/svg" xmlns:xlink="http://www.w3.org/1999/xlink" viewBox="0 0 831.48 972.01"><defs><style>.cls-1{fill:url(#linear-gradient);}.cls-2{fill:url(#linear-gradient-2);}</style><linearGradient id="linear-gradient" x1="-0.63" y1="242.13" x2="924" y2="867.39" gradientTransform="translate(-126.46 129.92) rotate(-17.05)" gradientUnits="userSpaceOnUse"><stop offset="0" stop-color="#9527dd"/><stop offset="1" stop-color="#4e087c"/></linearGradient><linearGradient id="linear-gradient-2" x1="20.59" y1="210.75" x2="945.22" y2="836.01" xlink:href="#linear-gradient"/></defs><title>devvfloww-color-logo</title><g id="Layer_2" data-name="Layer 2"><g id="Layer_1-2" data-name="Layer 1"><path class="cls-1" d="M584.26,225.05l114.4-34.21C660.57,73.82,573.1-8.26,470.37.66c-82.91,7.21-179.95,76.58-203,152.45-16,52.7.1,99.4,8.93,129.51,44.63,152.19,86.67,288,124.68,406.67,3.39,17.18,5.91,44.16-4.87,72.27C366,840,246.92,888.94,173,843.75c-51.4-31.41-60.19-95.54-60.56-98.51-1.27-10.41-5.6-50.6,19.72-88.43,18.06-27,41.83-39.07,54.6-45.36C222.81,593.67,256.58,595,275.66,596a210.88,210.88,0,0,1,48,8.14L286.49,482.86a225,225,0,0,0-55.44-3.05c-46.85,3.27-80.23,20.51-95.06,28.38C117,518.24,34.43,562,7.76,658.51c-15.16,54.85-4.49,100.57,1.64,127,7,30,21.12,91,72,135.77C153,984.39,249.08,972.73,288.23,968c0,0,131.86-16,205.53-110.42,9.45-12.11,17.36-25,17.36-25h0a260.09,260.09,0,0,0,22.29-46.42c21.46-58.78,8.78-113,1.12-137.8-21-68.62-30.81-101.18-37.54-124-2.84-9.64-5.09-17.33-7.2-24.56,0,0-68.89-226.25-72.44-237.42-16.14-50.7-22.86-76.9-11.29-101.76C417.43,136.14,440,124,442,123c0,0,24.73-12.88,55-7.32C538,123.2,549.18,136.07,584.26,225.05Z"/><polygon class="cls-2" points="523.49 470.9 561.16 593.77 831.48 510.89 523.49 470.9"/></g></g></svg>